
<svg version="1.0" xmlns="http://www.w3.org/2000/svg"
 width="908.000000pt" height="737.000000pt" viewBox="0 0 908.000000 737.000000"
 preserveAspectRatio="xMidYMid meet">

<g transform="translate(0.000000,737.000000) scale(0.100000,-0.100000)"
fill="#000000" stroke="none">
<path d="M5778 7363 c7 -3 16 -2 19 1 4 3 -2 6 -13 5 -11 0 -14 -3 -6 -6z"/>
<path d="M6190 7158 c-98 -207 -220 -470 -375 -803 -84 -181 -178 -382 -208
-445 -30 -63 -105 -225 -167 -360 -63 -135 -118 -251 -123 -258 -7 -9 -25 -11
-54 -9 -23 3 -43 2 -43 -1 0 -4 -10 -18 -21 -32 -16 -20 -18 -21 -10 -4 6 12
7 25 3 29 -4 5 0 5 8 0 8 -5 12 -5 8 0 -11 12 -78 15 -78 4 0 -6 -5 -7 -11 -3
-15 9 -89 12 -89 3 0 -4 -18 -5 -40 -3 -22 2 -40 -1 -40 -6 0 -6 5 -10 12 -10
6 0 8 -3 5 -7 -4 -3 -2 -12 4 -19 6 -8 6 -14 0 -18 -5 -4 -12 -2 -16 4 -3 5
-4 10 0 10 3 0 -1 14 -10 30 -9 17 -20 30 -26 30 -6 0 -7 -5 -3 -11 5 -8 1 -8
-14 0 -31 17 -37 13 -17 -9 10 -11 14 -20 9 -20 -5 0 -15 9 -21 19 -14 22 -64
23 -71 1 -3 -8 0 -10 8 -5 9 6 11 4 6 -4 -6 -9 -12 -8 -26 4 -10 9 -21 15 -26
14 -5 -1 -17 1 -27 6 -10 4 -23 2 -32 -5 -8 -7 -23 -9 -37 -4 -41 14 -118 12
-118 -3 0 -7 -5 -13 -11 -13 -5 0 -7 5 -4 10 3 6 -1 10 -9 10 -21 0 -31 -4
-29 -11 1 -3 -5 -6 -13 -6 -8 0 -13 6 -10 12 5 14 -82 15 -103 1 -9 -6 -12 -5
-8 1 4 7 -3 10 -18 9 -14 0 -25 -4 -25 -7 0 -4 -7 -10 -16 -13 -13 -5 -14 -3
-6 6 8 10 3 13 -23 13 -18 0 -31 -3 -28 -7 2 -5 0 -8 -6 -8 -5 0 -13 5 -16 10
-3 6 -11 10 -17 10 -6 0 -8 -3 -5 -7 8 -7 -11 -33 -24 -33 -5 0 -9 5 -9 10 0
6 3 9 8 8 4 -2 7 2 8 7 0 6 -9 8 -20 6 -41 -7 -61 -7 -85 1 -19 7 -22 6 -17
-8 5 -14 4 -15 -9 -4 -12 10 -18 10 -30 0 -8 -7 -15 -9 -16 -4 0 5 -5 0 -10
-11 -9 -19 -9 -19 -5 2 3 19 0 21 -28 20 -17 -2 -37 -6 -45 -11 -10 -6 -12 -5
-7 2 4 7 4 12 -1 13 -56 5 -73 3 -73 -11 0 -9 -3 -11 -8 -5 -10 14 -52 15 -52
1 0 -8 -2 -8 -8 0 -9 14 -53 21 -69 11 -6 -4 -14 -3 -18 3 -10 16 -38 12 -31
-5 5 -13 2 -13 -17 -1 -27 17 -76 14 -88 -5 -7 -11 -9 -10 -9 5 0 17 -1 17
-25 2 -23 -15 -25 -15 -25 -1 0 9 -4 14 -10 10 -5 -3 -7 -13 -4 -23 4 -10 2
-13 -3 -7 -4 6 -17 17 -27 25 -18 13 -19 13 -11 0 7 -12 6 -13 -6 -4 -8 6 -27
9 -44 8 -53 -6 -96 -6 -102 0 -3 3 -13 -4 -23 -16 -13 -16 -19 -18 -25 -8 -5
8 -4 11 3 6 6 -3 14 -1 18 5 5 9 -2 10 -24 6 -17 -4 -33 -3 -36 1 -7 12 -83 7
-99 -7 -12 -9 -17 -9 -23 0 -5 8 -3 10 7 4 11 -6 12 -5 2 5 -10 11 -15 11 -28
0 -8 -7 -15 -8 -15 -4 0 12 -163 12 -172 0 -4 -6 -14 -4 -24 5 -10 8 -15 9
-12 4 4 -6 -3 -17 -15 -25 -21 -12 -21 -12 -7 5 14 17 13 17 -9 10 -14 -4 -21
-3 -18 2 4 5 0 10 -8 10 -8 0 -15 -4 -15 -9 0 -5 -4 -7 -8 -4 -13 8 -92 15
-92 8 0 -4 -10 -18 -21 -32 -16 -20 -18 -21 -10 -4 6 12 7 25 3 29 -4 5 0 5 8
0 8 -5 12 -5 8 0 -11 12 -78 15 -78 4 0 -6 -5 -7 -11 -3 -15 9 -89 12 -89 3 0
-4 -18 -5 -40 -3 -22 2 -40 -1 -40 -6 0 -6 5 -10 12 -10 6 0 8 -3 5 -7 -4 -3
-2 -12 4 -19 6 -8 6 -14 0 -18 -5 -4 -12 -2 -16 4 -3 5 -4 10 0 10 3 0 -1 14
-10 30 -9 17 -20 30 -26 30 -6 0 -7 -5 -3 -11 5 -8 1 -8 -14 0 -31 17 -37 13
-17 -9 10 -11 14 -20 9 -20 -5 0 -15 9 -21 19 -14 22 -64 23 -71 1 -3 -8 0
-10 8 -5 9 6 11 4 6 -4 -6 -9 -12 -8 -26 4 -10 9 -21 15 -26 14 -5 -1 -17 1
-27 6 -10 4 -23 2 -32 -5 -8 -7 -23 -9 -37 -4 -41 14 -118 12 -118 -3 0 -7 -5
-13 -11 -13 -5 0 -7 5 -4 10 3 6 -1 10 -9 10 -21 0 -31 -4 -29 -11 1 -3 -5 -6
-13 -6 -8 0 -13 6 -10 12 5 14 -82 15 -103 1 -9 -6 -12 -5 -8 1 4 7 -3 10 -18
9 -14 0 -25 -4 -25 -7 0 -4 -7 -10 -16 -13 -13 -5 -14 -3 -6 6 8 10 3 13 -23
13 -18 0 -31 -3 -28 -7 2 -5 0 -8 -6 -8 -5 0 -13 5 -16 10 -3 6 -11 10 -17 10
-6 0 -8 -3 -5 -7 8 -7 -11 -33 -24 -33 -5 0 -9 4 -9 10 0 5 3 9 8 7 4 -1 7 3
8 8 0 6 -9 8 -20 6 -41 -7 -61 -7 -83 1 -27 9 -28 3 -9 -34 8 -15 17 -40 21
-57 4 -17 10 -31 14 -31 4 0 7 -8 8 -17 1 -10 331 -839 734 -1843 403 -1004
864 -2156 1025 -2560 l293 -735 2735 -3 2736 -2 -3 2012 c-3 2196 1 2029 -58
2328 -129 653 -418 1245 -855 1750 -119 138 -350 360 -495 476 -217 174 -623
429 -640 402 -4 -7 -13 -4 -26 9 -23 23 -205 106 -368 168 -97 37 -227 79
-376 121 -12 3 -29 -23 -69 -108z m-3196 -1909 c-3 -5 -11 -9 -17 -8 -8 0 -8
2 1 6 10 4 10 8 0 21 -12 15 -11 16 4 3 10 -7 15 -17 12 -22z m626 1 c-12 -8
-13 -10 -1 -10 8 0 12 -3 8 -6 -11 -12 -25 6 -20 27 4 15 9 17 17 9 8 -8 7
-13 -4 -20z m-1900 16 c0 -2 -8 -10 -17 -17 -16 -13 -17 -12 -4 4 13 16 21 21
21 13z m725 -5 c3 -5 2 -12 -3 -15 -5 -3 -9 1 -9 9 0 17 3 19 12 6z m700 -9
c-3 -3 -11 0 -18 7 -9 10 -8 11 6 5 10 -3 15 -9 12 -12z m1135 14 c0 -2 -8
-10 -17 -17 -16 -13 -17 -12 -4 4 13 16 21 21 21 13z m725 -5 c3 -5 2 -12 -3
-15 -5 -3 -9 1 -9 9 0 17 3 19 12 6z m-2865 -11 c0 -5 -2 -10 -4 -10 -3 0 -8
5 -11 10 -3 6 -1 10 4 10 6 0 11 -4 11 -10z m387 4 c-3 -3 -12 -4 -19 -1 -8 3
-5 6 6 6 11 1 17 -2 13 -5z m683 0 c0 -8 -19 -13 -24 -6 -3 5 1 9 9 9 8 0 15
-2 15 -3z m1490 -4 c0 -5 -2 -10 -4 -10 -3 0 -8 5 -11 10 -3 6 -1 10 4 10 6 0
11 -4 11 -10z m387 4 c-3 -3 -12 -4 -19 -1 -8 3 -5 6 6 6 11 1 17 -2 13 -5z
m-3346 -21 c13 -16 12 -17 -3 -4 -10 7 -18 15 -18 17 0 8 8 3 21 -13z m319 -3
c6 -11 8 -20 6 -20 -3 0 -10 9 -16 20 -6 11 -8 20 -6 20 3 0 10 -9 16 -20z
m2241 3 c13 -16 12 -17 -3 -4 -10 7 -18 15 -18 17 0 8 8 3 21 -13z m319 -3 c6
-11 8 -20 6 -20 -3 0 -10 9 -16 20 -6 11 -8 20 -6 20 3 0 10 -9 16 -20z
m-1785 -8 c-3 -3 -11 0 -18 7 -9 10 -8 11 6 5 10 -3 15 -9 12 -12z m35 3 c0
-8 -2 -15 -4 -15 -2 0 -6 7 -10 15 -3 8 -1 15 4 15 6 0 10 -7 10 -15z m75 5
c3 -5 1 -10 -4 -10 -6 0 -11 5 -11 10 0 6 2 10 4 10 3 0 8 -4 11 -10z m-825
-4 c0 -2 -8 -10 -17 -17 -16 -13 -17 -12 -4 4 13 16 21 21 21 13z m170 -6 c0
-5 -5 -10 -11 -10 -5 0 -7 5 -4 10 3 6 8 10 11 10 2 0 4 -4 4 -10z m1374 2 c3
-5 -1 -9 -9 -9 -8 0 -12 4 -9 9 3 4 7 8 9 8 2 0 6 -4 9 -8z m1016 4 c0 -2 -8
-10 -17 -17 -16 -13 -17 -12 -4 4 13 16 21 21 21 13z m170 -6 c0 -5 -5 -10
-11 -10 -5 0 -7 5 -4 10 3 6 8 10 11 10 2 0 4 -4 4 -10z m-2073 -15 c0 -8 -4
-12 -9 -9 -5 3 -6 10 -3 15 9 13 12 11 12 -6z m-763 -11 c3 -8 2 -12 -4 -9 -6
3 -10 10 -10 16 0 14 7 11 14 -7z m1070 0 c3 -8 2 -12 -4 -9 -6 3 -10 10 -10
16 0 14 7 11 14 -7z m479 -4 c3 -11 1 -18 -4 -14 -5 3 -9 12 -9 20 0 20 7 17
13 -6z m1011 4 c3 -8 2 -12 -4 -9 -6 3 -10 10 -10 16 0 14 7 11 14 -7z m-2294
-10 c0 -8 -19 -13 -24 -6 -3 5 1 9 9 9 8 0 15 -2 15 -3z m2560 0 c0 -8 -19
-13 -24 -6 -3 5 1 9 9 9 8 0 15 -2 15 -3z m-1367 -59 c-3 -9 -8 -14 -10 -11
-3 3 -2 9 2 15 9 16 15 13 8 -4z"/>
<path d="M78 3909 c-10 -10 -24 -19 -30 -18 -10 0 -10 2 0 6 6 2 12 9 12 14 0
6 -7 6 -19 0 -10 -6 -21 -7 -25 -4 -3 3 -6 -51 -6 -121 0 -82 4 -125 10 -121
5 3 10 2 10 -4 0 -5 -5 -13 -10 -16 -7 -4 -10 -623 -10 -1826 l0 -1819 1321 0
c1254 0 1321 1 1316 18 -4 16 -184 474 -955 2427 -431 1092 -461 1167 -475
1195 -15 31 -39 50 -52 42 -5 -3 -16 -7 -25 -9 -65 -11 -70 -10 -80 5 -5 10
-10 12 -10 6 0 -13 -80 -15 -80 -2 0 6 -7 5 -16 -3 -13 -10 -17 -10 -25 2 -8
12 -13 6 -10 -13 1 -7 -33 -3 -48 7 -5 3 -13 1 -16 -5 -4 -7 -11 -7 -18 -2 -7
5 -27 8 -44 6 -18 -1 -30 2 -27 7 3 5 -2 6 -10 3 -8 -3 -12 -13 -9 -22 4 -15
3 -15 -6 -2 -6 8 -11 11 -11 5 0 -5 -5 -4 -11 2 -8 8 -20 8 -34 3 -13 -5 -25
-6 -28 -3 -3 3 -32 5 -64 4 -35 0 -60 4 -65 12 -6 9 -8 9 -8 0 0 -20 -57 -16
-69 5 -9 15 -11 14 -11 -8 -1 -23 -2 -23 -10 -5 -5 11 -9 14 -9 6 -1 -11 -4
-11 -18 0 -15 13 -15 12 -3 -11 12 -23 12 -24 -3 -12 -9 8 -22 12 -29 9 -7 -2
-25 0 -40 4 -16 4 -28 5 -28 1 0 -12 -84 -6 -109 7 -13 7 -21 9 -17 3 3 -5 -6
-9 -20 -9 -15 0 -30 -6 -34 -13 -6 -10 -8 -10 -12 0 -2 7 -18 13 -36 12 -27
-1 -32 3 -32 21 0 13 7 33 16 45 8 12 13 22 10 22 -3 0 8 27 25 59 34 69 39
102 13 80 -15 -12 -16 -11 -10 9 9 26 7 26 -16 1z"/>
</g>
</svg>
